<svg width="32" height="32" viewBox="0 0 32 32" fill="none" xmlns="http://www.w3.org/2000/svg">
  <!-- James Dean silhouette favicon -->
  <rect width="32" height="32" fill="#0F0F23"/>
  <path d="M16 4 C 10 4, 6 8, 6 14 C 6 18, 8 22, 12 24 C 14 25, 16 26, 18 26 C 20 26, 22 25, 24 24 C 28 22, 30 18, 30 14 C 30 8, 26 4, 20 4 Z
           M 12 8 C 12 6, 14 4, 16 4 C 18 4, 20 6, 20 8 C 20 10, 18 12, 16 12 C 14 12, 12 10, 12 8 Z
           M 10 12 C 10 10, 12 8, 14 8 C 16 8, 18 10, 18 12 C 18 14, 16 16, 14 16 C 12 16, 10 14, 10 12 Z
           M 18 12 C 18 10, 20 8, 22 8 C 24 8, 26 10, 26 12 C 26 14, 24 16, 22 16 C 20 16, 18 14, 18 12 Z
           M 14 18 C 14 16, 16 14, 18 14 C 20 14, 22 16, 22 18 C 22 20, 20 22, 18 22 C 16 22, 14 20, 14 18 Z
           M 8 10 C 6 10, 4 12, 4 14 C 4 16, 6 18, 8 18 C 10 18, 12 16, 12 14 C 12 12, 10 10, 8 10 Z
           M 24 10 C 22 10, 20 12, 20 14 C 20 16, 22 18, 24 18 C 26 18, 28 16, 28 14 C 28 12, 26 10, 24 10 Z" 
        fill="#FFD700"/>
  <!-- Hair signature -->
  <path d="M 10 6 C 8 5, 6 6, 5 8 C 4 10, 5 12, 7 13 C 8 12, 9 10, 10 8 Z
           M 22 6 C 24 5, 26 6, 27 8 C 28 10, 27 12, 25 13 C 24 12, 23 10, 22 8 Z" 
        fill="#FFD700" opacity="0.8"/>
</svg>
